<?xml version="1.0" encoding="utf-8"?>
<svg xmlns="http://www.w3.org/2000/svg">
    <symbol id="logo_v1" viewBox="0 0 32 32" enable-background="new 0 0 32 32" version="1.1" xml:space="preserve"
        xmlns="http://www.w3.org/2000/svg" xmlns:xlink="http://www.w3.org/1999/xlink" fill="#000000">
        <g id="SVGRepo_bgCarrier" stroke-width="0"></g>
        <g id="SVGRepo_tracerCarrier" stroke-linecap="round" stroke-linejoin="round"></g>
        <g id="SVGRepo_iconCarrier">
            <g id="Packaging_Delivery31"></g>
            <g id="Packaging_Delivery30"></g>
            <g id="Packaging_Delivery29"></g>
            <g id="Packaging_Delivery28"></g>
            <g id="Packaging_Delivery27"></g>
            <g id="Packaging_Delivery26"></g>
            <g id="Packaging_Delivery25"></g>
            <g id="Packaging_Delivery24"></g>
            <g id="Packaging_Delivery23"></g>
            <g id="Packaging_Delivery22"></g>
            <g id="Packaging_Delivery21"></g>
            <g id="Packaging_Delivery20"></g>
            <g id="Packaging_Delivery19"></g>
            <g id="Packaging_Delivery18"></g>
            <g id="Packaging_Delivery17"></g>
            <g id="Packaging_Delivery16"></g>
            <g id="Packaging_Delivery15"></g>
            <g id="Packaging_Delivery14"></g>
            <g id="Packaging_Delivery13"></g>
            <g id="Packaging_Delivery12"></g>
            <g id="Packaging_Delivery11">
                <g>
                    <path
                        d="M16,14.75c-0.0967,0-0.1938-0.0142-0.2871-0.042l-10-3c-0.5293-0.1587-0.8296-0.7163-0.6709-1.2451 C5.2012,9.9331,5.7588,9.6343,6.2871,9.792L16,12.7061l9.7129-2.9141c0.5288-0.1543,1.0859,0.1416,1.2451,0.6709 c0.1587,0.5288-0.1416,1.0864-0.6709,1.2451l-10,3C16.1938,14.7358,16.0967,14.75,16,14.75z"
                        fill="#231F20"></path>
                </g>
                <g>
                    <path
                        d="M27,11v12.75c0,0.41-0.25,0.78-0.63,0.93l-10,4c-0.12,0.05-0.24,0.07-0.37,0.07s-0.25-0.02-0.37-0.07 l-10-4C5.25,24.53,5,24.16,5,23.75V11c0-0.55,0.45-1,1-1h20C26.55,10,27,10.45,27,11z"
                        fill="#48B1DD"></path>
                </g>
                <g>
                    <path
                        d="M16.99,7.91c-0.06,0.38-0.34,0.69-0.7,0.8l-10,3C6.19,11.74,6.1,11.75,6,11.75 c-0.24,0-0.47-0.09-0.66-0.25l-4-3.5C1.07,7.77,0.95,7.4,1.02,7.05S1.34,6.41,1.68,6.3l9-3c0.3-0.1,0.63-0.05,0.89,0.13l5,3.5 C16.89,7.15,17.05,7.53,16.99,7.91z"
                        fill="#96CEE5"></path>
                </g>
                <g>
                    <path
                        d="M30.66,8l-4,3.5c-0.19,0.16-0.42,0.25-0.66,0.25c-0.1,0-0.19-0.01-0.29-0.04l-10-3 c-0.36-0.11-0.64-0.42-0.7-0.8s0.1-0.76,0.42-0.98l5-3.5c0.26-0.18,0.59-0.23,0.89-0.13l9,3c0.34,0.11,0.59,0.4,0.66,0.75 S30.93,7.77,30.66,8z"
                        fill="#96CEE5"></path>
                </g>
                <g>
                    <path
                        d="M27,10.75c0,0.44-0.29,0.83-0.71,0.96l-10,3c-0.1,0.03-0.19,0.04-0.29,0.04s-0.19-0.01-0.29-0.04l-10-3 C5.29,11.58,5,11.19,5,10.75s0.29-0.83,0.71-0.96l10-3c0.19-0.05,0.39-0.05,0.58,0l10,3C26.71,9.92,27,10.31,27,10.75z"
                        fill="#4391B2"></path>
                </g>
                <g>
                    <path
                        d="M16.83,14.3l-4,6c-0.19,0.29-0.5,0.45-0.83,0.45c-0.12,0-0.25-0.02-0.37-0.07l-10-4 c-0.3-0.12-0.52-0.37-0.6-0.67C0.95,15.7,1.02,15.37,1.22,15.13l4-5c0.25-0.32-0.5162-0.8181-0.1262-0.7081L16.29,12.79 c0.3,0.09,0.54,0.32,0.65,0.62S17.01,14.04,16.83,14.3z"
                        fill="#96CEE5"></path>
                </g>
                <g>
                    <path
                        d="M30.97,15.94c-0.08,0.3-0.3,0.56-0.59,0.67l-10,4.07c-0.13,0.05-0.25,0.07-0.38,0.07 c-0.33,0-0.64-0.16-0.83-0.45l-4-6c-0.18-0.26-0.22-0.59-0.11-0.89s0.35-0.53,0.65-0.62l11.0244-3.3056 c0.39-0.12-0.2144,0.3256,0.0457,0.6356l4,4.94C30.98,15.3,31.05,15.63,30.97,15.94z"
                        fill="#96CEE5"></path>
                </g>
            </g>
            <g id="Packaging_Delivery10"></g>
            <g id="Packaging_Delivery09"></g>
            <g id="Packaging_Delivery08"></g>
            <g id="Packaging_Delivery07"></g>
            <g id="Packaging_Delivery06"></g>
            <g id="Packaging_Delivery05"></g>
            <g id="Packaging_Delivery04"></g>
            <g id="Packaging_Delivery03"></g>
            <g id="Packaging_Delivery02"></g>
            <g id="Packaging_Delivery01"></g>
        </g>
    </symbol>
    <symbol id="logo_outline" fill="#000000" version="1.1" xmlns="http://www.w3.org/2000/svg"
        xmlns:xlink="http://www.w3.org/1999/xlink" viewBox="0 0 440 440" xml:space="preserve">
        <g id="SVGRepo_bgCarrier" stroke-width="0"></g>
        <g id="SVGRepo_tracerCarrier" stroke-linecap="round" stroke-linejoin="round"></g>
        <g id="SVGRepo_iconCarrier">
            <g>
                <path
                    d="M439.9,111.711c-0.374-2.142-1.786-3.958-3.77-4.85L274.576,34.147c-2.352-1.06-5.109-0.642-7.04,1.07L220,77.293 l-47.536-42.076c-1.93-1.711-4.688-2.13-7.039-1.07L3.869,106.861c-1.982,0.892-3.395,2.708-3.77,4.85 c-0.375,2.14,0.334,4.328,1.894,5.842l51.033,49.502l-28.774,50.806c-1.781,3.146-0.683,7.14,2.457,8.931l27.964,15.96v65.271 c0,2.342,1.248,4.507,3.274,5.678l158.768,91.85c1.017,0.587,2.15,0.882,3.286,0.882c1.083,0,2.165-0.275,3.146-0.812 c-0.002,0.004-0.008,0.01-0.009,0.014l158.915-91.933c2.026-1.171,3.274-3.336,3.274-5.678v-65.271l27.966-15.96 c3.14-1.791,4.237-5.785,2.455-8.931l-28.772-50.806l51.031-49.502C439.567,116.039,440.277,113.851,439.9,111.711z M278.612,213.567l-52.052-30.151V96.697l138.129,69.444L278.612,213.567z M75.311,166.142l138.131-69.445v86.719l-52.054,30.151 L75.311,166.142z M18.063,114.861l148.879-67.008l41.454,36.691L62.453,157.918L18.063,114.861z M38.892,218.639l24.854-43.887 l146.41,80.665l-32.483,42.427L38.892,218.639z M213.44,388.497L67.793,304.239v-53.998l108.353,61.839 c1.021,0.583,2.139,0.863,3.248,0.863c1.983,0,3.932-0.9,5.214-2.573l28.833-37.659L213.44,388.497L213.44,388.497z M220,245.861 l-45.196-24.901L220,194.78l45.196,26.18L220,245.861z M372.206,304.239l-145.646,84.258V272.71l28.833,37.659 c1.28,1.673,3.229,2.573,5.214,2.573c1.106,0,2.227-0.28,3.248-0.863l108.351-61.839V304.239z M401.109,218.639l-138.781,79.204 l-32.484-42.427l146.411-80.665L401.109,218.639z M377.548,157.918L231.604,84.544l41.452-36.691l148.881,67.008L377.548,157.918z">
                </path>
            </g>
        </g>
    </symbol>
    <symbol id="logout" fill="currentColor" version="1.1"  xmlns:x="&amp;ns_extend;" xmlns:i="&amp;ns_ai;" xmlns:graph="&amp;ns_graphs;" xmlns="http://www.w3.org/2000/svg" xmlns:xlink="http://www.w3.org/1999/xlink" viewBox="0 0 24 24" enable-background="new 0 0 24 24" xml:space="preserve" stroke="currentColor">
        <g id="SVGRepo_bgCarrier" stroke-width="0"></g><g id="SVGRepo_tracerCarrier" stroke-linecap="round" stroke-linejoin="round"></g>
        <g id="SVGRepo_iconCarrier"> <metadata> <sfw xmlns="&amp;ns_sfw;"> <slices> </slices> <slicesourcebounds width="505" height="984" bottomleftorigin="true" x="0" y="-120"> </slicesourcebounds> </sfw> </metadata> <g> <g> <g> 
        <path d="M15,24H1c-0.6,0-1-0.4-1-1V1c0-0.6,0.4-1,1-1h14c0.6,0,1,0.4,1,1v7c0,0.6-0.4,1-1,1s-1-0.4-1-1V2H2v20h12v-6 c0-0.6,0.4-1,1-1s1,0.4,1,1v7C16,23.6,15.6,24,15,24z"></path> </g> </g> <g> <g> 
        <path d="M23,13H8c-0.6,0-1-0.4-1-1s0.4-1,1-1h15c0.6,0,1,0.4,1,1S23.6,13,23,13z"></path> </g> </g> <g> <g> 
        <path d="M23,13c-0.3,0-0.5-0.1-0.7-0.3l-4-4c-0.4-0.4-0.4-1,0-1.4s1-0.4,1.4,0l4,4c0.4,0.4,0.4,1,0,1.4C23.5,12.9,23.3,13,23,13z "></path> </g> </g> <g> <g> 
        <path d="M19,17c-0.3,0-0.5-0.1-0.7-0.3c-0.4-0.4-0.4-1,0-1.4l4-4c0.4-0.4,1-0.4,1.4,0s0.4,1,0,1.4l-4,4C19.5,16.9,19.3,17,19,17z "></path> </g> </g> </g> </g>
    </symbol>
    <symbol id="user_default" version="1.1"  xmlns="http://www.w3.org/2000/svg" xmlns:xlink="http://www.w3.org/1999/xlink" viewBox="0 0 1800 1800" enable-background="new 0 0 1800 1800" xml:space="preserve" fill="#000000"><g id="SVGRepo_bgCarrier" stroke-width="0"></g><g id="SVGRepo_tracerCarrier" stroke-linecap="round" stroke-linejoin="round"></g><g id="SVGRepo_iconCarrier"> <g> <path fill="#333333" d="M899.996,13.388c-488.883,0-886.611,397.732-886.611,886.615c0,297.415,147.216,561.092,372.596,722.011 c14.883,10.622,30.131,20.758,45.673,30.469c101.1,63.151,215.747,106.507,338.525,124.601 c42.384,6.248,85.723,9.529,129.816,9.529c44.084,0,87.423-3.281,129.808-9.529c122.778-18.094,237.434-61.449,338.525-124.592 c15.542-9.711,30.799-19.855,45.682-30.478c225.389-160.919,372.604-424.596,372.604-722.011 C1786.615,411.12,1388.879,13.388,899.996,13.388z M899.996,1724.407c-163.127,0-315.337-47.626-443.461-129.704 c58.621-107.8,176.409-191.24,323.694-221.345v22.277l119.594,66.448l119.932-66.431v-22.295 c147.285,30.104,265.074,113.545,323.694,221.345C1215.324,1676.781,1063.118,1724.407,899.996,1724.407z M554.979,912.854 c-15.75-5.685-27.058-20.743-27.058-38.429c0-17.69,11.308-32.751,27.058-38.44v9.194V912.854z M1238.035,845.179v-8.769 c15.144,6.001,25.896,20.758,25.896,38.001c0,17.261-10.752,32.021-25.896,38.017V845.179z M1212.461,711.77 c-2.014,9.963-4.564,19.813-7.654,29.489c-61.936-32.053-146.322-67.303-235.16-79.466 c-155.131-21.218-168.833-29.74-183.829-73.174l-12.957-37.516l-29.723,26.291c-0.894,0.789-80.681,71.251-161.344,136.272 c-11.984-42.575-13.798-86.934-5.103-130.046c27.397-135.974,156.441-234.666,306.824-234.666c23.249,0,46.749,2.365,69.859,7.017 c85.297,17.195,159.218,63.936,208.153,131.617C1210.005,554.617,1228.081,634.235,1212.461,711.77z M608.063,845.179V817.6 v-56.933c55.635-44.597,111.831-92.696,143.719-120.336c30.452,47.001,85.592,56.964,210.67,74.073 c86.504,11.833,170.369,49.166,222.49,76.398V817.6v27.579v94.646c0,159.053-129.399,288.436-288.436,288.436 c-159.044,0-288.444-129.383-288.444-288.436V845.179z M833.33,1310.867V1275.4c20.489,3.853,41.586,5.962,63.177,5.962 c24.048,0,47.505-2.534,70.154-7.281v36.786v30.843v22.649l-66.796,36.995l-66.535-36.969v-22.676V1310.867z M1387.403,1564.451 c-68.34-121.537-201.975-214.22-367.649-245.175v-61.016c119.42-46.385,206.444-158.038,217.075-290.979 c45.291-6.708,80.194-45.742,80.194-92.871c0-43.972-30.399-80.88-71.265-91.081c8.175-19.678,14.536-40.158,18.745-61.06 c18.588-92.227-2.699-186.615-59.94-265.794c-56.781-78.533-142.27-132.711-240.705-152.558 c-26.547-5.354-53.57-8.062-80.343-8.062c-84.273,0-166.412,27.106-231.29,76.333c-66.301,50.303-111.619,121.676-127.595,200.942 c-13.13,65.121-6.196,132.494,20.021,194.854l5.997,14.245c-43.156,8.487-75.838,46.576-75.838,92.192 c0,47.533,35.52,86.844,81.383,93.041c10.909,135.439,101.083,248.828,224.035,293.486v58.325 c-165.679,30.955-299.3,123.638-367.641,245.175C208.383,1414.259,75.59,1172.364,75.59,900.003 c0-454.583,369.827-824.41,824.406-824.41s824.415,369.828,824.415,824.41C1724.41,1172.364,1591.608,1414.259,1387.403,1564.451z"></path> </g> </g></symbol>
    <symbol id="product" fill="currentColor" viewBox="0 0 52 52" data-name="Layer 1" xmlns="http://www.w3.org/2000/svg">
        <g id="SVGRepo_bgCarrier" stroke-width="0"></g>
        <g id="SVGRepo_tracerCarrier" stroke-linecap="round" stroke-linejoin="round"></g>
        <g id="SVGRepo_iconCarrier"> <g> 
        <path d="M31.9,39.5h6A1.42,1.42,0,0,0,39.4,38V14a1.42,1.42,0,0,0-1.5-1.5h-6A1.42,1.42,0,0,0,30.4,14V38A1.42,1.42,0,0,0,31.9,39.5Z"></path> 
        <path d="M45.4,39.5h3A1.42,1.42,0,0,0,49.9,38V14a1.42,1.42,0,0,0-1.5-1.5h-3A1.42,1.42,0,0,0,43.9,14V38A1.42,1.42,0,0,0,45.4,39.5Z"></path> 
        <path d="M25,39.5h0A1.37,1.37,0,0,0,26.5,38V14A1.42,1.42,0,0,0,25,12.5h0A1.42,1.42,0,0,0,23.5,14V38A1.37,1.37,0,0,0,25,39.5Z"></path> 
        <path d="M16.6,39.5H18A1.42,1.42,0,0,0,19.5,38V14A1.42,1.42,0,0,0,18,12.5H16.5A1.42,1.42,0,0,0,15,14V38A1.45,1.45,0,0,0,16.6,39.5Z"></path> 
        <path d="M3.6,39.5h6A1.42,1.42,0,0,0,11.1,38V14a1.42,1.42,0,0,0-1.5-1.5h-6A1.42,1.42,0,0,0,2.1,14V38A1.47,1.47,0,0,0,3.6,39.5Z"></path> </g> </g>
    </symbol>
    <symbol id="no_photo"  version="1.1" xmlns="http://www.w3.org/2000/svg" xmlns:xlink="http://www.w3.org/1999/xlink" viewBox="0 0 512.001 512.001" xml:space="preserve" fill="#000000">
        <g id="SVGRepo_bgCarrier" stroke-width="0"></g>
        <g id="SVGRepo_tracerCarrier" stroke-linecap="round" stroke-linejoin="round"></g>
        <g id="SVGRepo_iconCarrier"> <rect x="219.389" y="122.964" style="fill:#F7B239;" width="73.232" height="38.446"></rect> 
        <path style="fill:#333333;" d="M292.615,189.807h-73.232c-5.057,0-9.154-4.099-9.154-9.154v-57.689c0-5.056,4.098-9.154,9.154-9.154 h73.232c5.057,0,9.154,4.099,9.154,9.154v57.69C301.769,185.709,297.672,189.807,292.615,189.807z M228.537,171.498h54.923v-39.38 h-54.923L228.537,171.498L228.537,171.498z"></path> 
        <path style="fill:#4D4D4D;" d="M422.602,186.157v164.707c0,13.671-11.083,24.754-24.754,24.754H114.146 c-13.671,0-24.754-11.083-24.754-24.754V186.157c0-13.671,11.083-24.754,24.754-24.754h283.702 C411.519,161.404,422.602,172.487,422.602,186.157z"></path> 
        <path style="fill:#B8E6FF;" d="M422.602,186.157v17.357h-89.713v-42.11h64.96C411.519,161.404,422.602,172.487,422.602,186.157z"></path> 
        <circle style="fill:#999999;" cx="255.995" cy="268.507" r="71.616"></circle> 
        <circle style="fill:#E6E6E6;" cx="255.995" cy="268.507" r="34.574"></circle> 
        <path style="fill:#808080;" d="M255.999,312.239c-24.113,0-43.729-19.616-43.729-43.728s19.616-43.729,43.729-43.729 c24.112,0,43.728,19.616,43.728,43.729C299.728,292.623,280.111,312.239,255.999,312.239z M255.999,243.092 c-14.016,0-25.42,11.403-25.42,25.42c0,14.016,11.404,25.419,25.42,25.419s25.419-11.403,25.419-25.419 C281.419,254.494,270.017,243.092,255.999,243.092z"></path> 
        <circle style="fill:#F7B239;" cx="168.734" cy="330.171" r="9.154"></circle> 
        <path style="fill:#F95428;" d="M437.019,74.982C388.667,26.63,324.379,0.001,255.999,0.001S123.332,26.63,74.981,74.982 C26.628,123.333,0,187.621,0,256.001s26.628,132.667,74.981,181.018C123.332,485.372,187.619,512,256.001,512 c68.379,0,132.666-26.628,181.02-74.981c48.351-48.351,74.981-112.639,74.981-181.018S485.37,123.333,437.019,74.982z M424.072,87.929c44.895,44.893,69.619,104.583,69.619,168.073c0,60.428-22.411,117.402-63.279,161.465L94.535,81.589 C138.597,40.723,195.572,18.31,255.999,18.31C319.488,18.31,379.178,43.034,424.072,87.929z M87.928,424.074 C43.033,379.18,18.309,319.491,18.309,256.001c0-60.428,22.411-117.403,63.279-161.465l335.876,335.876 c-44.063,40.867-101.038,63.279-161.465,63.279C192.51,493.692,132.82,468.967,87.928,424.074z"></path> </g>
    </symbol>
    <symbol id="google" viewBox="-0.5 0 48 48" version="1.1" xmlns="http://www.w3.org/2000/svg" xmlns:xlink="http://www.w3.org/1999/xlink" fill="#000000"><g id="SVGRepo_bgCarrier" stroke-width="0"></g><g id="SVGRepo_tracerCarrier" stroke-linecap="round" stroke-linejoin="round"></g><g id="SVGRepo_iconCarrier"> <title>Google-color</title> <desc>Created with Sketch.</desc> <defs> </defs> <g id="Icons" stroke="none" stroke-width="1" fill="none" fill-rule="evenodd"> <g id="Color-" transform="translate(-401.000000, -860.000000)"> <g id="Google" transform="translate(401.000000, 860.000000)"> <path d="M9.82727273,24 C9.82727273,22.4757333 10.0804318,21.0144 10.5322727,19.6437333 L2.62345455,13.6042667 C1.08206818,16.7338667 0.213636364,20.2602667 0.213636364,24 C0.213636364,27.7365333 1.081,31.2608 2.62025,34.3882667 L10.5247955,28.3370667 C10.0772273,26.9728 9.82727273,25.5168 9.82727273,24" id="Fill-1" fill="#FBBC05"> </path> <path d="M23.7136364,10.1333333 C27.025,10.1333333 30.0159091,11.3066667 32.3659091,13.2266667 L39.2022727,6.4 C35.0363636,2.77333333 29.6954545,0.533333333 23.7136364,0.533333333 C14.4268636,0.533333333 6.44540909,5.84426667 2.62345455,13.6042667 L10.5322727,19.6437333 C12.3545909,14.112 17.5491591,10.1333333 23.7136364,10.1333333" id="Fill-2" fill="#EB4335"> </path> <path d="M23.7136364,37.8666667 C17.5491591,37.8666667 12.3545909,33.888 10.5322727,28.3562667 L2.62345455,34.3946667 C6.44540909,42.1557333 14.4268636,47.4666667 23.7136364,47.4666667 C29.4455,47.4666667 34.9177955,45.4314667 39.0249545,41.6181333 L31.5177727,35.8144 C29.3995682,37.1488 26.7323182,37.8666667 23.7136364,37.8666667" id="Fill-3" fill="#34A853"> </path> <path d="M46.1454545,24 C46.1454545,22.6133333 45.9318182,21.12 45.6113636,19.7333333 L23.7136364,19.7333333 L23.7136364,28.8 L36.3181818,28.8 C35.6879545,31.8912 33.9724545,34.2677333 31.5177727,35.8144 L39.0249545,41.6181333 C43.3393409,37.6138667 46.1454545,31.6490667 46.1454545,24" id="Fill-4" fill="#4285F4"> </path> </g> </g> </g> </g></symbol>
    <symbol id="github" viewBox="0 0 24 24" xmlns="http://www.w3.org/2000/svg" fill="#000000"><g id="SVGRepo_bgCarrier" stroke-width="0"></g><g id="SVGRepo_tracerCarrier" stroke-linecap="round" stroke-linejoin="round"></g><g id="SVGRepo_iconCarrier"> <title>github</title> <rect width="24" height="24" fill="none"></rect> <path d="M12,2A10,10,0,0,0,8.84,21.5c.5.08.66-.23.66-.5V19.31C6.73,19.91,6.14,18,6.14,18A2.69,2.69,0,0,0,5,16.5c-.91-.62.07-.6.07-.6a2.1,2.1,0,0,1,1.53,1,2.15,2.15,0,0,0,2.91.83,2.16,2.16,0,0,1,.63-1.34C8,16.17,5.62,15.31,5.62,11.5a3.87,3.87,0,0,1,1-2.71,3.58,3.58,0,0,1,.1-2.64s.84-.27,2.75,1a9.63,9.63,0,0,1,5,0c1.91-1.29,2.75-1,2.75-1a3.58,3.58,0,0,1,.1,2.64,3.87,3.87,0,0,1,1,2.71c0,3.82-2.34,4.66-4.57,4.91a2.39,2.39,0,0,1,.69,1.85V21c0,.27.16.59.67.5A10,10,0,0,0,12,2Z"></path> </g></symbol>
</svg>